<?xml version="1.0" encoding="UTF-8" standalone="no"?>
<!-- Created with Inkscape (http://www.inkscape.org/) -->

<svg
   width="360mm"
   height="360mm"
   viewBox="0 0 360 360"
   version="1.1"
   id="svg1"
   xml:space="preserve"
   sodipodi:docname="WinDurango.svg"
   inkscape:export-filename="logo\16.png"
   inkscape:export-xdpi="1.128889"
   inkscape:export-ydpi="1.128889"
   inkscape:version="1.3.2 (091e20e, 2023-11-25, custom)"
   xmlns:inkscape="http://www.inkscape.org/namespaces/inkscape"
   xmlns:sodipodi="http://sodipodi.sourceforge.net/DTD/sodipodi-0.dtd"
   xmlns="http://www.w3.org/2000/svg"
   xmlns:svg="http://www.w3.org/2000/svg"><sodipodi:namedview
     id="namedview1"
     pagecolor="#000000"
     bordercolor="#000000"
     borderopacity="0.25"
     inkscape:showpageshadow="2"
     inkscape:pageopacity="0.0"
     inkscape:pagecheckerboard="0"
     inkscape:deskcolor="#d1d1d1"
     inkscape:document-units="mm"
     showgrid="false"
     inkscape:export-bgcolor="#00000000"
     inkscape:zoom="0.35355339"
     inkscape:cx="537.40115"
     inkscape:cy="623.66818"
     inkscape:window-width="1600"
     inkscape:window-height="829"
     inkscape:window-x="1912"
     inkscape:window-y="163"
     inkscape:window-maximized="1"
     inkscape:current-layer="svg1"><inkscape:grid
       id="grid86"
       units="mm"
       originx="0"
       originy="0"
       spacingx="7.5000002"
       spacingy="7.5000002"
       empcolor="#0099e5"
       empopacity="0.79215686"
       color="#0099e5"
       opacity="0.14901961"
       empspacing="6"
       dotted="false"
       gridanglex="30"
       gridanglez="30"
       visible="false" /></sodipodi:namedview><defs
     id="defs1"><rect
       x="1339.3906"
       y="363.3844"
       width="2062.1841"
       height="316.93054"
       id="rect497" /><linearGradient
       id="swatch83"><stop
         style="stop-color:#000000;stop-opacity:1;"
         offset="0"
         id="stop83" /></linearGradient><linearGradient
       id="swatch42"
       inkscape:swatch="solid"><stop
         style="stop-color:#000000;stop-opacity:1;"
         offset="0"
         id="stop43" /></linearGradient><filter
       style="color-interpolation-filters:sRGB;"
       inkscape:label="Drop Shadow"
       id="filter481"
       x="-0.18280542"
       y="-0.18708673"
       width="1.3656108"
       height="1.3741735"><feFlood
         result="flood"
         in="SourceGraphic"
         flood-opacity="0.498039"
         flood-color="rgb(255,255,255)"
         id="feFlood480" /><feGaussianBlur
         result="blur"
         in="SourceGraphic"
         stdDeviation="2.000000"
         id="feGaussianBlur480" /><feOffset
         result="offset"
         in="blur"
         dx="0.000000"
         dy="0.000000"
         id="feOffset480" /><feComposite
         result="comp1"
         operator="in"
         in="flood"
         in2="offset"
         id="feComposite480" /><feComposite
         result="fbSourceGraphic"
         operator="over"
         in="SourceGraphic"
         in2="comp1"
         id="feComposite481" /><feColorMatrix
         result="fbSourceGraphicAlpha"
         in="fbSourceGraphic"
         values="0 0 0 -1 0 0 0 0 -1 0 0 0 0 -1 0 0 0 0 1 0"
         id="feColorMatrix123" /><feFlood
         id="feFlood123"
         result="flood"
         in="fbSourceGraphic"
         flood-opacity="1.000000"
         flood-color="rgb(33,33,33)" /><feGaussianBlur
         id="feGaussianBlur123"
         result="blur"
         in="fbSourceGraphic"
         stdDeviation="2.000000" /><feOffset
         id="feOffset123"
         result="offset"
         in="blur"
         dx="0.000000"
         dy="0.000000" /><feComposite
         id="feComposite123"
         result="comp1"
         operator="in"
         in="flood"
         in2="offset" /><feComposite
         id="feComposite124"
         result="comp2"
         operator="over"
         in="fbSourceGraphic"
         in2="comp1" /></filter></defs><g
     id="layer1"
     transform="matrix(1.4374998,0,0,1.4374998,-143.03639,-167.25425)"><path
       id="path5"
       style="fill:#1a1a1a;fill-opacity:1;stroke-width:2.57530471;stroke:#ffffff;stroke-dasharray:none;fill-rule:evenodd"
       d="m 334.64661,164.23247 -132.92989,-4.1e-4 c 0,0 -6.058,-0.89568 -11.44184,-5.38304 -5.38384,-4.48736 -36.34905,5.38307 -43.97747,11.219 -7.62888,5.83321 -2.31117,8.52565 -9.68202,13.23791 -7.37087,4.71228 -26.66654,69.77965 -26.66654,69.77965 0,0 -21.664127,63.58734 23.20994,72.33717 0,0 7.01674,-1.70344 16.43812,-12.9232 9.42454,-11.21977 27.82092,-27.14947 37.69482,-27.37436 9.65763,-0.21904 45.06787,-0.008 46.61098,0 h 100.7439 c 5.91388,0 10.07439,-4.16052 10.07439,-10.0744 V 174.30687 c 0,-5.91389 -4.16051,-10.07437 -10.07439,-10.0744 z"
       sodipodi:nodetypes="scscscccccssss" /><path
       id="rect4"
       style="fill:#1a1a1a;fill-opacity:1;stroke:#ffffff;stroke-width:2.57530471;stroke-linecap:square;stroke-dasharray:none;stroke-dashoffset:0;paint-order:fill markers stroke"
       d="m 203.6334,295.29303 v 10.02713 h -12.65245 a 7.4036329,7.40357 0 0 0 -7.40408,7.40403 v 2.62416 h 20.05653 20.05551 20.05549 20.05656 v -2.62416 a 7.4036329,7.40357 0 0 0 -7.4041,-7.40403 H 243.7444 v -10.02713 h -20.05549 z" /><g
       id="g5"
       transform="matrix(1.9183886,0,0,1.9633176,93.408043,-126.03525)"
       style="fill:#ffffff;fill-opacity:1;stroke-width:1.00007562;stroke-dasharray:none"><path
         style="fill:#ffffff;fill-opacity:1;stroke-width:1.00007562;stroke-dasharray:none"
         d="m 119.99665,155.91808 h -9.49801 c -0.27747,0 -0.50247,0.29366 -0.50247,0.65593 0,0.3622 0.225,0.6559 0.50247,0.6559 h 9.49801 c 0.27756,0 0.50249,-0.2937 0.50249,-0.6559 0,-0.36227 -0.22493,-0.65593 -0.50249,-0.65593 z"
         id="path4-7" /><path
         style="fill:#ffffff;fill-opacity:1;stroke-width:1.00007562;stroke-dasharray:none"
         d="M 88.487741,158.85938 H 75.990927 c -0.277481,0 -0.502481,0.2936 -0.502481,0.6559 0,0.36221 0.225,0.65591 0.502481,0.65591 h 12.496814 c 0.277481,0 0.502484,-0.2937 0.502484,-0.65591 0,-0.3623 -0.225003,-0.6559 -0.502484,-0.6559 z"
         id="path5-4" /><path
         style="fill:#ffffff;fill-opacity:1;stroke-width:1.00007562;stroke-dasharray:none"
         d="M 114.74517,158.85938 H 94.744193 c -0.277478,0 -0.502481,0.2936 -0.502481,0.6559 0,0.36221 0.225003,0.65591 0.502481,0.65591 h 20.000977 c 0.27749,0 0.50249,-0.2937 0.50249,-0.65591 0,-0.3623 -0.225,-0.6559 -0.50249,-0.6559 z"
         id="path6" /><path
         style="fill:#ffffff;fill-opacity:1;stroke-width:1.00007562;stroke-dasharray:none"
         d="M 93.359003,161.80055 H 73.738248 c -0.277482,0 -0.502483,0.2937 -0.502483,0.6559 0,0.36231 0.225001,0.65591 0.502483,0.65591 h 19.620755 c 0.277481,0 0.502484,-0.2936 0.502484,-0.65591 0,-0.3622 -0.225003,-0.6559 -0.502484,-0.6559 z"
         id="path7" /><path
         style="fill:#ffffff;fill-opacity:1;stroke-width:1.00007562;stroke-dasharray:none"
         d="m 114.59617,161.80055 h -14.4515 c -0.359751,0 -0.651472,0.2937 -0.651472,0.6559 0,0.36231 0.291721,0.65591 0.651472,0.65591 h 14.4515 c 0.35976,0 0.65149,-0.2936 0.65149,-0.65591 0,-0.3622 -0.29173,-0.6559 -0.65149,-0.6559 z"
         id="path8" /><path
         style="fill:#ffffff;fill-opacity:1;stroke-width:1.00007562;stroke-dasharray:none"
         d="M 87.402862,170.62436 H 73.738248 c -0.277482,0 -0.502483,0.29371 -0.502483,0.6559 0,0.36221 0.225001,0.6559 0.502483,0.6559 h 13.664614 c 0.277482,0 0.502482,-0.29369 0.502482,-0.6559 0,-0.36219 -0.225,-0.6559 -0.502482,-0.6559 z"
         id="path484" /><path
         style="fill:#ffffff;fill-opacity:1;stroke-width:1.00007562;stroke-dasharray:none"
         d="M 94.16098,167.68309 H 73.738248 c -0.277482,0 -0.502483,0.2937 -0.502483,0.6559 0,0.36221 0.225001,0.65591 0.502483,0.65591 h 20.422656 c 0.277559,0 0.502483,-0.2937 0.502483,-0.65591 0,-0.3622 -0.224924,-0.6559 -0.502407,-0.6559 z"
         id="path483" /><path
         style="fill:#ffffff;fill-opacity:1;stroke-width:1.00007562;stroke-dasharray:none"
         d="M 89.655543,164.74182 H 75.990927 c -0.277481,0 -0.502481,0.2937 -0.502481,0.6559 0,0.36231 0.225,0.6559 0.502481,0.6559 h 13.664616 c 0.277481,0 0.502484,-0.29359 0.502484,-0.6559 0,-0.3622 -0.225003,-0.6559 -0.502484,-0.6559 z"
         id="path9" /><path
         style="fill:#ffffff;fill-opacity:1;stroke-width:1.00007562;stroke-dasharray:none"
         d="M 100.44288,173.57203 H 79.269506 c -0.250465,0 -0.453432,0.29074 -0.453432,0.64951 0,0.35867 0.202967,0.6495 0.453432,0.6495 h 21.173374 c 0.25045,0 0.45343,-0.29083 0.45343,-0.6495 0,-0.35877 -0.20298,-0.64951 -0.45343,-0.64951 z"
         id="path10" /><path
         style="fill:#ffffff;fill-opacity:1;stroke-width:1.00007562;stroke-dasharray:none"
         d="m 89.473043,176.5069 h -8.976677 c -0.277558,0 -0.502481,0.2936 -0.502481,0.6559 0,0.36221 0.224923,0.65591 0.502481,0.65591 h 8.976677 c 0.277557,0 0.502483,-0.2937 0.502483,-0.65591 0,-0.3623 -0.224926,-0.6559 -0.502483,-0.6559 z"
         id="path486" /><path
         style="fill:#ffffff;fill-opacity:1;stroke-width:1.00007562;stroke-dasharray:none"
         d="m 123.44599,173.56563 h -6.9065 c -0.27748,0 -0.50248,0.2936 -0.50248,0.65591 0,0.3622 0.225,0.6559 0.50248,0.6559 h 6.9065 c 0.27756,0 0.50248,-0.2937 0.50248,-0.6559 0,-0.36231 -0.22492,-0.65591 -0.50248,-0.65591 z"
         id="path485" /><path
         style="fill:#ffffff;fill-opacity:1;stroke-width:1.00007562;stroke-dasharray:none"
         d="m 112.18251,173.56563 h -6.9065 c -0.27749,0 -0.50249,0.2936 -0.50249,0.65591 0,0.3622 0.225,0.6559 0.50249,0.6559 h 6.9065 c 0.27755,0 0.50248,-0.2937 0.50248,-0.6559 0,-0.36231 -0.22493,-0.65591 -0.50248,-0.65591 z"
         id="path11" /><path
         style="fill:#ffffff;fill-opacity:1;stroke-width:1.00007562;stroke-dasharray:none"
         d="M 92.807087,179.44807 H 80.496366 c -0.277558,0 -0.502481,0.29371 -0.502481,0.6559 0,0.36231 0.224923,0.6559 0.502481,0.6559 h 12.310721 c 0.277482,0 0.502484,-0.29359 0.502484,-0.6559 0,-0.36219 -0.225002,-0.6559 -0.502484,-0.6559 z"
         id="path12" /><path
         style="fill:#ffffff;fill-opacity:1;stroke-width:1.00007562;stroke-dasharray:none"
         d="M 112.18251,179.44807 H 98.517969 c -0.277559,0 -0.502481,0.29371 -0.502481,0.6559 0,0.36231 0.224922,0.6559 0.502481,0.6559 h 13.664541 c 0.27755,0 0.50248,-0.29359 0.50248,-0.6559 0,-0.36219 -0.22493,-0.6559 -0.50248,-0.6559 z"
         id="path13" /><path
         style="fill:#ffffff;fill-opacity:1;stroke-width:1.00007562;stroke-dasharray:none"
         d="m 121.64384,179.44807 h -5.10435 c -0.27748,0 -0.50248,0.29371 -0.50248,0.6559 0,0.36231 0.225,0.6559 0.50248,0.6559 h 5.10435 c 0.27749,0 0.50248,-0.29359 0.50248,-0.6559 0,-0.36219 -0.22499,-0.6559 -0.50248,-0.6559 z"
         id="path14" /><path
         style="fill:#ffffff;fill-opacity:1;stroke-width:1.00007562;stroke-dasharray:none"
         d="M 107.2074,188.27188 H 80.740969 c -0.286909,0 -0.519409,0.29362 -0.519409,0.65591 0,0.3622 0.2325,0.6559 0.519409,0.6559 H 107.2074 c 0.28683,0 0.51941,-0.2937 0.51941,-0.6559 0,-0.36229 -0.23258,-0.65591 -0.51941,-0.65591 z"
         id="path488" /><path
         style="fill:#ffffff;fill-opacity:1;stroke-width:1.00007562;stroke-dasharray:none"
         d="M 87.880138,185.33061 H 73.755176 c -0.28683,0 -0.519411,0.29371 -0.519411,0.6559 0,0.36221 0.232581,0.65591 0.519411,0.65591 h 14.124962 c 0.28683,0 0.51941,-0.2937 0.51941,-0.65591 0,-0.36219 -0.23258,-0.6559 -0.51941,-0.6559 z"
         id="path487" /><path
         style="fill:#ffffff;fill-opacity:1;stroke-width:1.00007562;stroke-dasharray:none"
         d="m 82.030718,182.45289 h -8.275542 c -0.28683,0 -0.519411,0.2937 -0.519411,0.65591 0,0.3623 0.232581,0.6559 0.519411,0.6559 h 8.275542 c 0.28683,0 0.519413,-0.2936 0.519413,-0.6559 0,-0.36221 -0.232583,-0.65591 -0.519413,-0.65591 z"
         id="path15" /><path
         style="fill:#ffffff;fill-opacity:1;stroke-width:1.00007562;stroke-dasharray:none"
         d="m 125.24813,188.27188 h -15.46668 c -0.27757,0 -0.50249,0.29362 -0.50249,0.65591 0,0.3622 0.22492,0.6559 0.50249,0.6559 h 15.46668 c 0.27755,0 0.50249,-0.2937 0.50249,-0.6559 0,-0.36229 -0.22494,-0.65591 -0.50249,-0.65591 z"
         id="path16" /><path
         style="fill:#ffffff;fill-opacity:1;stroke-width:1.00007562;stroke-dasharray:none"
         d="m 88.529164,191.21315 h -8.032798 c -0.277558,0 -0.502481,0.2936 -0.502481,0.6559 0,0.36221 0.224923,0.65592 0.502481,0.65592 h 8.032798 c 0.277557,0 0.502484,-0.29371 0.502484,-0.65592 0,-0.3623 -0.224927,-0.6559 -0.502484,-0.6559 z"
         id="path17" /><path
         style="fill:#ffffff;fill-opacity:1;stroke-width:1.00007562;stroke-dasharray:none"
         d="M 87.402862,194.15434 H 73.738248 c -0.277482,0 -0.502483,0.2937 -0.502483,0.65588 0,0.36231 0.225001,0.65592 0.502483,0.65592 h 13.664614 c 0.277482,0 0.502482,-0.29361 0.502482,-0.65592 0,-0.36218 -0.225,-0.65588 -0.502482,-0.65588 z"
         id="path489" /><path
         style="fill:#ffffff;fill-opacity:1;stroke-width:1.00007562;stroke-dasharray:none"
         d="m 111.0562,191.21315 h -8.03287 c -0.27749,0 -0.50248,0.2936 -0.50248,0.6559 0,0.36221 0.22499,0.65592 0.50248,0.65592 h 8.03287 c 0.27749,0 0.50248,-0.29371 0.50248,-0.65592 0,-0.3623 -0.225,-0.6559 -0.50248,-0.6559 z"
         id="path19" /><path
         style="fill:#ffffff;fill-opacity:1;stroke-width:1.00007562;stroke-dasharray:none"
         d="M 109.35315,197.09561 H 95.688543 c -0.277485,0 -0.502489,0.29368 -0.502489,0.65589 0,0.3623 0.225004,0.6559 0.502489,0.6559 h 13.664607 c 0.27749,0 0.50248,-0.2936 0.50248,-0.6559 0,-0.36221 -0.22499,-0.65589 -0.50248,-0.65589 z"
         id="path490" /><path
         style="fill:#ffffff;fill-opacity:1;stroke-width:1.00007562;stroke-dasharray:none"
         d="M 91.908223,197.09561 H 78.243685 c -0.277558,0 -0.502481,0.29368 -0.502481,0.65589 0,0.3623 0.224923,0.6559 0.502481,0.6559 h 13.664538 c 0.277559,0 0.502484,-0.2936 0.502484,-0.6559 0,-0.36221 -0.224925,-0.65589 -0.502484,-0.65589 z"
         id="path20" /><path
         style="fill:#ffffff;fill-opacity:1;stroke-width:1.00007562;stroke-dasharray:none"
         d="M 98.995238,200.03686 H 78.243685 c -0.277558,0 -0.502481,0.29371 -0.502481,0.6559 0,0.36221 0.224923,0.65592 0.502481,0.65592 h 20.751553 c 0.277486,0 0.502481,-0.29371 0.502481,-0.65592 0,-0.36219 -0.224995,-0.6559 -0.502481,-0.6559 z"
         id="path491" /><path
         style="fill:#ffffff;fill-opacity:1;stroke-width:1.00007562;stroke-dasharray:none"
         d="m 102.59502,202.97815 h -7.217328 c -0.277559,0 -0.502481,0.29368 -0.502481,0.65589 0,0.36221 0.224922,0.6559 0.502481,0.6559 h 7.217328 c 0.27757,0 0.5025,-0.29369 0.5025,-0.6559 0,-0.36221 -0.22493,-0.65589 -0.5025,-0.65589 z"
         id="path21" /><path
         style="fill:#ffffff;fill-opacity:1;stroke-width:1.00007562;stroke-dasharray:none"
         d="m 88.116941,202.97815 h -9.873256 c -0.277558,0 -0.502481,0.29368 -0.502481,0.65589 0,0.36221 0.224923,0.6559 0.502481,0.6559 h 9.873256 c 0.277559,0 0.502483,-0.29369 0.502483,-0.6559 0,-0.36221 -0.224924,-0.65589 -0.502483,-0.65589 z"
         id="path23" /><path
         style="fill:#ffffff;fill-opacity:1;stroke-width:1.00007562;stroke-dasharray:none"
         d="M 104.2422,155.91808 H 84.241221 c -0.277482,0 -0.502482,0.29366 -0.502482,0.65593 0,0.3622 0.225,0.6559 0.502482,0.6559 H 104.2422 c 0.27756,0 0.50248,-0.2937 0.50248,-0.6559 0,-0.36227 -0.22492,-0.65593 -0.50248,-0.65593 z"
         id="path493" /><path
         style="fill:#ffffff;fill-opacity:1;stroke-width:1.00007562;stroke-dasharray:none"
         d="m 77.98477,155.91808 h -4.246521 c -0.277482,0 -0.502484,0.29366 -0.502484,0.65593 0,0.3622 0.225002,0.6559 0.502484,0.6559 h 4.246521 c 0.277482,0 0.502483,-0.2937 0.502483,-0.6559 0,-0.36227 -0.225001,-0.65593 -0.502483,-0.65593 z"
         id="path492" /><path
         style="fill:#ffffff;fill-opacity:1;stroke-width:1.00007562;stroke-dasharray:none"
         d="m 83.236257,152.97684 h -9.498009 c -0.277482,0 -0.502483,0.29366 -0.502483,0.6559 0,0.36225 0.225001,0.6559 0.502483,0.6559 h 9.498009 c 0.277482,0 0.502482,-0.29365 0.502482,-0.6559 0,-0.36224 -0.225,-0.6559 -0.502482,-0.6559 z"
         id="path3" /><path
         style="fill:#ffffff;fill-opacity:1;stroke-width:1.00007562;stroke-dasharray:none"
         d="m 99.792715,191.21315 h -8.032868 c -0.277481,0 -0.502481,0.2936 -0.502481,0.6559 0,0.36221 0.225,0.65592 0.502481,0.65592 h 8.032868 c 0.277495,0 0.502495,-0.29371 0.502495,-0.65592 0,-0.3623 -0.225,-0.6559 -0.502495,-0.6559 z"
         id="path18" /></g></g></svg>
